# xmcd
#
# Track frame offsets:
# 150
# 15573
# 27552
# 45676
# 61459
# 74832
# 96179
# 110830
# 130603
#
# Disc length: 1920 seconds
#
# Revision: 1
# Processed by: cddbd v1.5PL3 Copyright (c) Steve Scherf et al.
# Submitted via: Easy CD Ripper 1.45
#
DISCID=82077e09
DTITLE=Christy Cooney - Smalltown Blues
DYEAR=2004
DGENRE=Blues
TTITLE0=Be Honest
TTITLE1=Christy cooney - Smalltown Blues
TTITLE2=Christy cooney - Song To Babe
TTITLE3=Christy cooney - 
TTITLE4=Christy cooney - Moonlit Night
TTITLE5=Christy cooney - Strangers On A Train
TTITLE6=Christy cooney - A Couple More Years
TTITLE7=Christy cooney - Spring Day
TTITLE8=Christy cooney - Upon That Golden Shore
EXTD=
EXTT0=
EXTT1=
EXTT2=
EXTT3=
EXTT4=
EXTT5=
EXTT6=
EXTT7=
EXTT8=
PLAYORDER=
